# xmcd
#
# Track frame offsets:
#	150
#	31697
#	44247
#	64351
#	79338
#	92486
#	115233
#	128311
#	139068
#	161956
#	181813
#
# Disc length: 2727 seconds
#
# Revision: 0
# Processed by: cddbd v1.5.2PL0 Copyright (c) Steve Scherf et al.
# Submitted via: dBpowerAMP V4.0
#
DISCID=920aa50b
DTITLE=Kim Massie and The Soul Senders - A Lady By Choice
DYEAR=2007
DGENRE=Blues
TTITLE0=Good to me as I am to you
TTITLE1=Down in the basement
TTITLE2=A Closer Walk With Thee
TTITLE3=Oh Darlin'
TTITLE4=Evil Gal Blues
TTITLE5=Damn Your Eyes
TTITLE6=Come on into my kitchen
TTITLE7=Muddy Water
TTITLE8=Night Time is the Right Time
TTITLE9=Super Duper Love
TTITLE10=Amazing Grace
EXTD=
EXTT0=
EXTT1=
EXTT2=
EXTT3=
EXTT4=
EXTT5=
EXTT6=
EXTT7=
EXTT8=
EXTT9=
EXTT10=
PLAYORDER=
